<svg width="53" height="55" viewBox="0 0 53 55" fill="none" xmlns="http://www.w3.org/2000/svg">
<path d="M0.705 49.91C0.741667 49.6167 0.796667 49.1583 0.87 48.535L1.035 47.215C1.255 45.8217 1.64 44.4833 2.19 43.2C2.52 42.43 3.03333 41.77 3.73 41.22C5.12333 40.12 7.03 39.185 9.45 38.415C10.3667 38.1217 11.7417 37.7 13.575 37.15C15.4083 36.6 16.7833 36.1783 17.7 35.885H17.865C17.7917 36.5083 17.755 37.425 17.755 38.635C17.8283 39.625 17.9933 40.4317 18.25 41.055C19.9733 45.1983 22.5217 48.48 25.895 50.9C26.115 51.0467 26.3167 51.12 26.5 51.12C26.6833 51.12 26.8667 51.0467 27.05 50.9C30.46 48.48 33.0267 45.1983 34.75 41.055C35.0433 40.395 35.2083 39.625 35.245 38.745C35.2817 38.1217 35.245 37.3517 35.135 36.435V36.05C35.0983 36.0133 35.0983 35.9767 35.135 35.94V35.885L39.535 37.205C41.075 37.645 42.23 37.9933 43 38.25C44.2833 38.6533 45.4017 39.075 46.355 39.515L46.74 39.68C48.2433 40.2667 49.4167 41.165 50.26 42.375C51.03 43.475 51.5617 44.8683 51.855 46.555C52.185 48.7917 52.3133 51.1567 52.24 53.65V54.75H1.2C0.98 54.75 0.833333 54.7133 0.76 54.64C0.723333 54.5667 0.705 54.4383 0.705 54.255C0.741667 53.6317 0.741667 52.66 0.705 51.34V49.91ZM27.875 -0.250001C28.1317 -0.213335 28.4983 -0.140002 28.975 -0.0300009L30.24 0.189996C32 0.593331 33.5583 1.30833 34.915 2.335C37.4083 4.16833 38.7467 6.82666 38.93 10.31C39.04 11.8867 38.93 13.7383 38.6 15.865C38.5633 16.0117 38.5633 16.1217 38.6 16.195C38.6367 16.2683 38.7467 16.305 38.93 16.305C39.4067 16.3417 39.7733 16.6717 40.03 17.295C40.2867 18.0283 40.3233 18.835 40.14 19.715C39.92 21.1083 39.37 22.2633 38.49 23.18C38.3433 23.3267 38.27 23.4733 38.27 23.62C38.3433 25.8567 38.7283 27.7267 39.425 29.23C40.2683 30.8067 41.4783 31.9433 43.055 32.64L43.44 32.805L43.605 32.915C41.8083 33.575 40.2683 33.96 38.985 34.07C37.2983 34.2167 35.7217 33.9783 34.255 33.355C33.5583 33.025 32.8983 32.585 32.275 32.035C32.1283 31.8883 32 31.815 31.89 31.815C31.78 31.7783 31.6333 31.8333 31.45 31.98C30.57 32.64 29.5433 33.2083 28.37 33.685C27.0867 34.1983 25.7667 34.18 24.41 33.63C23.2733 33.1533 22.3017 32.585 21.495 31.925C21.3117 31.815 21.165 31.76 21.055 31.76C20.9817 31.76 20.89 31.815 20.78 31.925C19.0933 33.6117 16.875 34.3267 14.125 34.07C12.7317 33.96 11.1733 33.575 9.45 32.915L9.505 32.86C9.505 32.8233 9.52333 32.805 9.56 32.805C12.09 31.7783 13.685 29.78 14.345 26.81C14.4917 26.15 14.6017 25.1967 14.675 23.95V23.895C14.7117 23.7117 14.6383 23.4733 14.455 23.18L14.4 23.07C13.0433 21.4933 12.53 19.715 12.86 17.735C13.0067 16.8183 13.465 16.3417 14.235 16.305C14.3817 16.305 14.4367 16.2133 14.4 16.03V15.92C14.1433 13.9767 14.015 12.3267 14.015 10.97C14.0517 8.14666 14.84 5.81833 16.38 3.985C17.7733 2.26166 19.7533 1.03333 22.32 0.299998C22.6867 0.189997 23.2183 0.0799977 23.915 -0.0300009C24.465 -0.103335 24.8683 -0.176669 25.125 -0.250001H27.875ZM21.165 22.08C19.8083 22.08 18.7267 21.8233 17.92 21.31C16.5633 20.4667 16.0133 19.385 16.27 18.065C16.3067 17.6983 16.0867 17.405 15.61 17.185C15.39 17.0383 15.1333 17.1117 14.84 17.405C14.6567 17.5883 14.5283 17.845 14.455 18.175C14.3817 19.7517 14.8217 21.035 15.775 22.025C16.1783 22.5017 16.435 22.8867 16.545 23.18C18.2317 26.7733 20.7067 29.56 23.97 31.54C24.8133 32.0533 25.6383 32.31 26.445 32.31C27.2883 32.31 28.15 32.0533 29.03 31.54C32.2567 29.56 34.7133 26.7917 36.4 23.235L36.51 22.96C36.6567 22.63 36.8033 22.41 36.95 22.3C37.7933 21.6033 38.3067 20.54 38.49 19.11C38.6367 18.3767 38.5267 17.8083 38.16 17.405C37.8667 17.1117 37.5917 17.0383 37.335 17.185C37.115 17.3317 36.95 17.4783 36.84 17.625C36.73 17.735 36.6933 17.8817 36.73 18.065C36.9867 19.4583 36.3817 20.5767 34.915 21.42C33.485 22.2267 31.89 22.3367 30.13 21.75C28.7 21.2367 27.82 20.3933 27.49 19.22V18.945C27.49 18.6517 27.4167 18.4683 27.27 18.395C27.1233 18.3217 26.9033 18.3033 26.61 18.34H25.95C25.6933 18.34 25.5467 18.4867 25.51 18.78C25.51 19.66 25.0333 20.4483 24.08 21.145C23.2 21.7683 22.2283 22.08 21.165 22.08ZM26.5 6.735C26.4267 6.845 26.2983 7.01 26.115 7.23C25.785 7.70666 25.5283 8.03666 25.345 8.22C22.8517 10.97 19.9183 12.7117 16.545 13.445C16.3983 13.4817 16.2883 13.5183 16.215 13.555C16.1783 13.5917 16.16 13.6833 16.16 13.83C16.3067 15.2233 16.4533 16.305 16.6 17.075C16.6733 17.0383 16.7283 17.02 16.765 17.02C17.315 16.3233 18.0667 15.8283 19.02 15.535C20.01 15.205 21.0183 15.1317 22.045 15.315C23.0717 15.4983 23.915 15.92 24.575 16.58C24.7583 16.69 24.9783 16.7267 25.235 16.69C26.0783 16.5067 26.9217 16.5067 27.765 16.69C28.0583 16.7267 28.2967 16.6533 28.48 16.47C28.8467 16.1033 29.3233 15.8283 29.91 15.645C32.44 14.8017 34.585 15.2783 36.345 17.075C36.6017 15.8283 36.7483 14.765 36.785 13.885C36.8217 13.7383 36.8033 13.6467 36.73 13.61C36.6933 13.5733 36.62 13.5367 36.51 13.5H36.455C32.7517 12.62 29.6717 10.7133 27.215 7.78C27.0683 7.63333 26.885 7.37667 26.665 7.01L26.5 6.735ZM32.055 20.87C33.2283 20.87 34.145 20.595 34.805 20.045C35.3183 19.6417 35.575 19.1833 35.575 18.67C35.575 18.1567 35.3183 17.68 34.805 17.24C34.1083 16.69 33.21 16.415 32.11 16.415C31.01 16.415 30.1117 16.69 29.415 17.24C28.9017 17.68 28.645 18.1567 28.645 18.67C28.645 19.1833 28.9017 19.6417 29.415 20.045C30.1117 20.595 30.9917 20.87 32.055 20.87ZM20.945 20.87C21.8617 20.87 22.65 20.65 23.31 20.21C24.0067 19.7333 24.355 19.22 24.355 18.67C24.355 18.0833 24.0067 17.57 23.31 17.13C22.65 16.6533 21.8067 16.415 20.78 16.415C19.79 16.415 18.9833 16.6533 18.36 17.13C17.7367 17.57 17.425 18.0833 17.425 18.67C17.425 19.22 17.7367 19.7333 18.36 20.21C18.9833 20.65 19.845 20.87 20.945 20.87Z" fill="white"/>
</svg>
