<svg width="26" height="22" viewBox="0 0 26 22" fill="none" xmlns="http://www.w3.org/2000/svg">
<path d="M13.644 15.932C13.4573 16.0627 13.2427 16.128 13 16.128C12.7573 16.128 12.552 16.0627 12.384 15.932L1.38 8.092C1.212 7.98 1.06267 7.96133 0.932 8.036C0.82 8.092 0.764 8.22267 0.764 8.428V20.972C0.764 21.196 0.838667 21.3827 0.988 21.532C1.13733 21.6813 1.31467 21.756 1.52 21.756H24.48C24.6853 21.756 24.8627 21.6813 25.012 21.532C25.18 21.3827 25.264 21.196 25.264 20.972V8.428C25.264 8.22267 25.1987 8.092 25.068 8.036C24.9373 7.96133 24.788 7.98 24.62 8.092L13.644 15.932ZM12.58 14.56C12.7293 14.6533 12.8693 14.7 13 14.7C13.1493 14.7 13.2893 14.6533 13.42 14.56L22.66 7.98C22.8653 7.812 22.968 7.616 22.968 7.392V1.372C22.968 1.16667 22.8933 0.998666 22.744 0.867999C22.6133 0.718665 22.4453 0.643998 22.24 0.643998H3.76C3.55467 0.643998 3.38667 0.718665 3.256 0.867999C3.12533 0.998666 3.06 1.16667 3.06 1.372V7.392C3.06 7.65333 3.15333 7.84933 3.34 7.98L12.58 14.56ZM7.372 3.612H18.18C18.404 3.612 18.5907 3.696 18.74 3.864C18.8893 4.01333 18.964 4.2 18.964 4.424C18.964 4.62933 18.8893 4.80667 18.74 4.956C18.5907 5.10533 18.404 5.18 18.18 5.18H7.372C7.148 5.18 6.96133 5.10533 6.812 4.956C6.66267 4.80667 6.588 4.62933 6.588 4.424C6.588 4.2 6.66267 4.01333 6.812 3.864C6.96133 3.696 7.148 3.612 7.372 3.612ZM7.372 6.356H18.18C18.404 6.356 18.5907 6.44 18.74 6.608C18.8893 6.75733 18.964 6.93467 18.964 7.14C18.964 7.34533 18.8893 7.532 18.74 7.7C18.5907 7.84933 18.404 7.924 18.18 7.924H7.372C7.148 7.924 6.96133 7.84933 6.812 7.7C6.66267 7.55067 6.588 7.37333 6.588 7.168C6.588 6.944 6.66267 6.75733 6.812 6.608C6.96133 6.44 7.148 6.356 7.372 6.356Z" fill="white"/>
</svg>
