<svg width="28" height="23" viewBox="0 0 28 23" fill="none" xmlns="http://www.w3.org/2000/svg">
<path d="M18.228 17.66C18.0227 17.66 17.8827 17.5853 17.808 17.436C17.696 17.212 17.6213 17.0533 17.584 16.96C17.5467 16.848 17.4627 16.7173 17.332 16.568C17.2013 16.4187 17.052 16.3533 16.884 16.372C16.7347 16.3907 16.604 16.484 16.492 16.652C16.4173 16.764 16.3427 16.96 16.268 17.24L16.184 17.604C16.128 17.8653 16.072 18.052 16.016 18.164L15.988 18.192C15.9693 18.2293 15.9413 18.248 15.904 18.248C15.8667 18.248 15.848 18.2107 15.848 18.136C15.792 17.9493 15.736 17.66 15.68 17.268L15.596 16.568C15.5213 15.9147 15.428 15.4293 15.316 15.112L15.288 15.028C15.2133 14.8973 15.1573 14.804 15.12 14.748C14.952 14.5427 14.7467 14.4867 14.504 14.58L14.476 14.608C14.4573 14.608 14.4293 14.6267 14.392 14.664L14.28 14.776C14.2053 14.888 14.1493 14.9813 14.112 15.056C14.0933 15.112 14.0653 15.2147 14.028 15.364L13.972 15.532C13.8973 15.9427 13.8227 16.5493 13.748 17.352L13.692 18.108C13.6733 18.5 13.6173 18.864 13.524 19.2C13.524 19.2747 13.5053 19.312 13.468 19.312C13.4493 19.312 13.4307 19.2933 13.412 19.256L13.384 19.228L13.216 18.64L13.104 17.996C13.0293 17.5667 12.964 17.2493 12.908 17.044C12.8333 16.764 12.74 16.5493 12.628 16.4C12.516 16.2507 12.3853 16.176 12.236 16.176C12.0867 16.1573 11.956 16.2133 11.844 16.344C11.8067 16.3813 11.76 16.4467 11.704 16.54L11.648 16.624C11.5547 16.848 11.4613 17.2027 11.368 17.688L11.34 17.912C11.3213 18.136 11.2653 18.3787 11.172 18.64C11.172 18.696 11.144 18.724 11.088 18.724C11.0693 18.724 11.06 18.7147 11.06 18.696L11.032 18.64C10.9947 18.584 10.9573 18.5 10.92 18.388L10.892 18.332C10.7987 17.9587 10.6867 17.6973 10.556 17.548C10.388 17.2867 10.1453 17.156 9.828 17.156H8.764C8.68933 17.156 8.64267 17.1653 8.624 17.184V17.688C8.64267 17.7067 8.68933 17.716 8.764 17.716H9.772C9.94 17.716 10.0707 17.7907 10.164 17.94L10.388 18.556C10.4627 18.7613 10.5467 18.9387 10.64 19.088C10.7707 19.2747 10.9293 19.368 11.116 19.368C11.3027 19.3493 11.4613 19.2467 11.592 19.06C11.6853 18.892 11.7693 18.6307 11.844 18.276L11.928 17.94C11.984 17.5293 12.04 17.2307 12.096 17.044L12.152 16.904C12.152 16.8853 12.152 16.8667 12.152 16.848C12.1707 16.8293 12.1893 16.8293 12.208 16.848C12.2267 16.848 12.2453 16.8573 12.264 16.876L12.292 16.904C12.3667 17.1467 12.4133 17.352 12.432 17.52C12.4693 17.6693 12.516 17.9027 12.572 18.22C12.6653 18.6493 12.74 18.9667 12.796 19.172C12.8333 19.3213 12.8707 19.4333 12.908 19.508C13.0013 19.788 13.1787 19.9653 13.44 20.04H13.552C13.7573 19.984 13.9067 19.8253 14 19.564C14.0933 19.3027 14.1773 18.892 14.252 18.332L14.336 17.436C14.3733 16.764 14.42 16.26 14.476 15.924C14.4947 15.756 14.5413 15.5507 14.616 15.308L14.644 15.28C14.6627 15.2427 14.6907 15.224 14.728 15.224C14.7653 15.224 14.784 15.2613 14.784 15.336C14.8587 15.504 14.9333 15.7933 15.008 16.204L15.092 16.904C15.148 17.4453 15.204 17.856 15.26 18.136C15.2973 18.3227 15.3533 18.4813 15.428 18.612C15.54 18.7987 15.68 18.9013 15.848 18.92C16.016 18.92 16.1653 18.864 16.296 18.752C16.464 18.5467 16.576 18.3227 16.632 18.08L16.884 17.156C16.884 17.0813 16.912 17.044 16.968 17.044C17.024 17.044 17.052 17.0813 17.052 17.156L17.164 17.38C17.2387 17.548 17.304 17.6693 17.36 17.744C17.5653 18.0613 17.8453 18.22 18.2 18.22C18.368 18.2013 18.6293 18.2013 18.984 18.22H19.376V17.66H18.228ZM0 19.816C0.373333 19.984 0.877333 20.2173 1.512 20.516V15.896C0.877333 16.1947 0.373333 16.428 0 16.596V19.816ZM21.952 4.332C19.208 1.94267 15.8573 1.028 11.9 1.588C10.1453 1.84933 8.53067 2.49333 7.056 3.52C5.61867 4.528 4.48 5.788 3.64 7.3C2.76267 8.84933 2.296 10.5013 2.24 12.256C2.20267 13.5813 2.19333 15.5787 2.212 18.248L2.24 21.244C2.24 21.748 2.39867 22.1587 2.716 22.476C3.052 22.7933 3.472 22.9613 3.976 22.98H6.356C6.972 22.9613 7.43867 22.7933 7.756 22.476C8.092 22.1587 8.26 21.692 8.26 21.076V15.364C8.26 14.7293 8.092 14.244 7.756 13.908C7.42 13.572 6.93467 13.404 6.3 13.404H4.2C4.10667 9.484 5.60933 6.61867 8.708 4.808C10.5373 3.72533 12.376 3.212 14.224 3.268C16.0907 3.30533 17.9107 3.90267 19.684 5.06C22.54 6.908 23.912 9.68933 23.8 13.404H23.044C22.428 13.3853 21.9613 13.3853 21.644 13.404C21.0653 13.404 20.608 13.572 20.272 13.908C19.936 14.2253 19.7587 14.6827 19.74 15.28V21.076C19.7587 21.6733 19.9267 22.1307 20.244 22.448C20.5613 22.7653 21.0093 22.9333 21.588 22.952C22.0733 22.9707 22.8107 22.98 23.8 22.98C25.1067 22.9613 25.76 22.2893 25.76 20.964V18.164C25.7787 15.6813 25.7787 13.8147 25.76 12.564C25.7413 9.29733 24.472 6.55333 21.952 4.332ZM28 16.988C28 16.7827 27.9627 16.652 27.888 16.596C27.5893 16.4093 27.1227 16.1573 26.488 15.84V20.516L26.88 20.32C27.1973 20.1333 27.4307 20.012 27.58 19.956C27.748 19.8813 27.86 19.7973 27.916 19.704C27.972 19.6107 28 19.48 28 19.312C27.9813 18.9573 27.9813 18.444 28 17.772V16.988Z" fill="white"/>
</svg>
