<svg width="48" height="55" viewBox="0 0 48 55" fill="none" xmlns="http://www.w3.org/2000/svg">
<path d="M46.05 3.325C45.8667 2.29833 45.39 1.54667 44.62 1.07C43.8867 0.593331 42.9333 0.428331 41.76 0.574998C41.32 0.64833 41.0267 0.629997 40.88 0.519999C40.77 0.409998 40.7517 0.153331 40.825 -0.250001H6.12C6.19333 0.116665 6.175 0.373332 6.065 0.519999C5.99167 0.629997 5.735 0.666663 5.295 0.629997C3.93833 0.446664 2.875 0.666664 2.105 1.29C1.335 1.91333 0.876667 2.92166 0.73 4.315C0.326667 7.835 0.858333 11.1167 2.325 14.16C3.13167 15.92 4.12167 17.0383 5.295 17.515C6.46833 17.9917 8.06333 17.9183 10.08 17.295C10.5567 17.1483 10.9233 17.13 11.18 17.24C11.4367 17.35 11.6933 17.625 11.95 18.065C13.6367 20.7783 15.745 22.7217 18.275 23.895C18.495 24.005 18.6233 24.1333 18.66 24.28C18.6967 24.39 18.66 24.555 18.55 24.775C18.0367 25.875 17.615 27.1583 17.285 28.625C17.065 29.5783 16.8267 30.8983 16.57 32.585C16.5333 32.8783 16.5517 33.08 16.625 33.19C16.735 33.2633 16.9367 33.3 17.23 33.3H21.245C24.875 33.2633 27.5883 33.2633 29.385 33.3C29.715 33.3 29.9167 33.2267 29.99 33.08C30.0633 32.9333 30.0817 32.7133 30.045 32.42V32.31C29.8617 30.88 29.6417 29.6517 29.385 28.625C29.0917 27.3417 28.7067 26.1683 28.23 25.105C28.0833 24.775 28.0283 24.5367 28.065 24.39C28.1017 24.2067 28.285 24.0417 28.615 23.895C31.145 22.7583 33.3267 20.7417 35.16 17.845C35.38 17.4783 35.5817 17.2583 35.765 17.185C35.985 17.075 36.2783 17.0933 36.645 17.24C37.0483 17.3867 37.6167 17.5333 38.35 17.68L39.065 17.79C41.045 18.12 42.5667 17.46 43.63 15.81C46.0867 12.1067 46.8933 7.945 46.05 3.325ZM9.915 15.7C9.585 15.7367 9.09 15.8283 8.43 15.975L7.44 16.195C6.26667 16.3783 5.25833 15.865 4.415 14.655C3.82833 13.8117 3.35167 12.84 2.985 11.74C2.69167 10.8967 2.45333 9.85167 2.27 8.605L2.05 6.515C2.05 5.23166 2.19667 4.22333 2.49 3.49C2.63667 3.05 2.94833 2.70166 3.425 2.445C3.93833 2.18833 4.47 2.07833 5.02 2.115C5.60667 2.115 6.065 2.28 6.395 2.61C6.505 2.72 6.56 2.92166 6.56 3.215C7.44 7.945 8.66833 11.8683 10.245 14.985C10.3183 15.205 10.3367 15.37 10.3 15.48C10.2633 15.59 10.135 15.6633 9.915 15.7ZM17.01 17.625C16.7533 17.845 16.4967 17.8817 16.24 17.735C16.0933 17.6617 15.8917 17.46 15.635 17.13C13.3983 13.7933 11.62 9.61333 10.3 4.59C10.2633 4.51666 10.245 4.40666 10.245 4.26C10.2817 4.00333 10.3367 3.80166 10.41 3.655C10.52 3.50833 10.685 3.41666 10.905 3.38C11.4183 3.30667 11.7483 3.52667 11.895 4.04C12.225 5.36 12.61 6.60666 13.05 7.78C14.15 11.1167 15.4883 13.9033 17.065 16.14C17.5417 16.7633 17.5233 17.2583 17.01 17.625ZM44.895 6.24C44.8217 7.70666 44.6933 8.95333 44.51 9.98C44.2167 11.3367 43.795 12.5467 43.245 13.61C42.695 14.6367 42.145 15.3517 41.595 15.755C41.045 16.1217 40.385 16.2683 39.615 16.195C39.065 16.1583 38.1667 15.975 36.92 15.645C36.7367 15.5717 36.6267 15.4983 36.59 15.425C36.59 15.3517 36.6267 15.26 36.7 15.15L36.755 15.04C38.3317 11.7033 39.56 7.725 40.44 3.105C40.44 2.84833 40.5133 2.665 40.66 2.555C41.1 2.18833 41.6133 2.02333 42.2 2.06C42.7867 2.09666 43.3183 2.29833 43.795 2.665C44.2717 2.995 44.565 3.435 44.675 3.985V4.095C44.895 5.04833 44.9683 5.76333 44.895 6.24ZM34.005 36.38C33.9683 35.6833 33.7483 35.1517 33.345 34.785C32.9783 34.4183 32.4467 34.2167 31.75 34.18H15.25C14.48 34.18 13.875 34.3633 13.435 34.73C13.0317 35.0967 12.83 35.6283 12.83 36.325C12.7933 37.1317 12.7933 38.3417 12.83 39.955V41.77H7.385V54.75H39.56V41.77H33.95L34.005 36.38Z" fill="white"/>
</svg>
