<svg width="53" height="55" fill="none" xmlns="http://www.w3.org/2000/svg"><path d="M.705 49.91c.037-.293.092-.752.165-1.375l.165-1.32c.22-1.393.605-2.732 1.155-4.015a5.02 5.02 0 011.54-1.98c1.393-1.1 3.3-2.035 5.72-2.805a258.83 258.83 0 014.125-1.265 258.83 258.83 0 004.125-1.265h.165c-.073.623-.11 1.54-.11 2.75.073.99.238 1.797.495 2.42 1.723 4.143 4.272 7.425 7.645 9.845.22.147.422.22.605.22s.367-.073.55-.22c3.41-2.42 5.977-5.702 7.7-9.845.293-.66.458-1.43.495-2.31.037-.623 0-1.393-.11-2.31v-.385c-.037-.037-.037-.073 0-.11v-.055l4.4 1.32c1.54.44 2.695.788 3.465 1.045 1.283.403 2.402.825 3.355 1.265l.385.165c1.503.587 2.677 1.485 3.52 2.695.77 1.1 1.302 2.493 1.595 4.18.33 2.237.458 4.602.385 7.095v1.1H1.2c-.22 0-.367-.037-.44-.11-.037-.073-.055-.202-.055-.385.037-.623.037-1.595 0-2.915v-1.43zM27.875-.25c.257.037.623.11 1.1.22l1.265.22c1.76.403 3.318 1.118 4.675 2.145 2.493 1.833 3.832 4.492 4.015 7.975.11 1.577 0 3.428-.33 5.555-.037.147-.037.257 0 .33.037.073.147.11.33.11.477.037.843.367 1.1.99.257.733.293 1.54.11 2.42-.22 1.393-.77 2.548-1.65 3.465-.147.147-.22.293-.22.44.073 2.237.458 4.107 1.155 5.61.843 1.577 2.053 2.713 3.63 3.41l.385.165.165.11c-1.797.66-3.337 1.045-4.62 1.155-1.687.147-3.263-.092-4.73-.715a8.474 8.474 0 01-1.98-1.32c-.147-.147-.275-.22-.385-.22-.11-.037-.257.018-.44.165-.88.66-1.907 1.228-3.08 1.705-1.283.513-2.603.495-3.96-.055-1.137-.477-2.108-1.045-2.915-1.705-.183-.11-.33-.165-.44-.165-.073 0-.165.055-.275.165-1.687 1.687-3.905 2.402-6.655 2.145-1.393-.11-2.952-.495-4.675-1.155l.055-.055c0-.037.018-.055.055-.055 2.53-1.027 4.125-3.025 4.785-5.995.147-.66.257-1.613.33-2.86v-.055c.037-.183-.037-.422-.22-.715l-.055-.11c-1.357-1.577-1.87-3.355-1.54-5.335.147-.917.605-1.393 1.375-1.43.147 0 .202-.092.165-.275v-.11c-.257-1.943-.385-3.593-.385-4.95.037-2.823.825-5.152 2.365-6.985C17.773 2.262 19.753 1.033 22.32.3c.367-.11.898-.22 1.595-.33.55-.073.953-.147 1.21-.22h2.75zm-6.71 22.33c-1.357 0-2.438-.257-3.245-.77-1.357-.843-1.907-1.925-1.65-3.245.037-.367-.183-.66-.66-.88-.22-.147-.477-.073-.77.22-.183.183-.312.44-.385.77-.073 1.577.367 2.86 1.32 3.85.403.477.66.862.77 1.155 1.687 3.593 4.162 6.38 7.425 8.36.843.513 1.668.77 2.475.77.843 0 1.705-.257 2.585-.77 3.227-1.98 5.683-4.748 7.37-8.305l.11-.275c.147-.33.293-.55.44-.66.843-.697 1.357-1.76 1.54-3.19.147-.733.037-1.302-.33-1.705-.293-.293-.568-.367-.825-.22-.22.147-.385.293-.495.44-.11.11-.147.257-.11.44.257 1.393-.348 2.512-1.815 3.355-1.43.807-3.025.917-4.785.33-1.43-.513-2.31-1.357-2.64-2.53v-.275c0-.293-.073-.477-.22-.55-.147-.073-.367-.092-.66-.055h-.66c-.257 0-.403.147-.44.44 0 .88-.477 1.668-1.43 2.365a4.931 4.931 0 01-2.915.935zM26.5 6.735c-.073.11-.202.275-.385.495-.33.477-.587.807-.77.99-2.493 2.75-5.427 4.492-8.8 5.225a1.703 1.703 0 00-.33.11c-.037.037-.055.128-.055.275.147 1.393.293 2.475.44 3.245a.421.421 0 01.165-.055c.55-.697 1.302-1.192 2.255-1.485a6.055 6.055 0 013.025-.22c1.027.183 1.87.605 2.53 1.265.183.11.403.147.66.11a5.889 5.889 0 012.53 0c.293.037.532-.037.715-.22.367-.367.843-.642 1.43-.825 2.53-.843 4.675-.367 6.435 1.43.257-1.247.403-2.31.44-3.19.037-.147.018-.238-.055-.275a.597.597 0 00-.22-.11h-.055c-3.703-.88-6.783-2.787-9.24-5.72-.147-.147-.33-.403-.55-.77l-.165-.275zm5.555 14.135c1.173 0 2.09-.275 2.75-.825.513-.403.77-.862.77-1.375s-.257-.99-.77-1.43c-.697-.55-1.595-.825-2.695-.825-1.1 0-1.998.275-2.695.825-.513.44-.77.917-.77 1.43 0 .513.257.972.77 1.375.697.55 1.577.825 2.64.825zm-11.11 0c.917 0 1.705-.22 2.365-.66.697-.477 1.045-.99 1.045-1.54 0-.587-.348-1.1-1.045-1.54-.66-.477-1.503-.715-2.53-.715-.99 0-1.797.238-2.42.715-.623.44-.935.953-.935 1.54 0 .55.312 1.063.935 1.54.623.44 1.485.66 2.585.66z" fill="#fff"/></svg>