<svg width="70" height="13" fill="none" xmlns="http://www.w3.org/2000/svg"><path d="M13.09 5.284c-.15.159-.383.397-.7.714l-.042.042c-.83.812-1.456 1.419-1.876 1.82-.13.13-.229.233-.294.308-.037.037-.056.093-.056.168l.714 4.144v.028c-.01.01-.056-.01-.14-.056-.168-.084-.41-.21-.728-.378L7.07 10.548c-.065-.037-.135-.033-.21.014l-1.428.756a174.3 174.3 0 01-2.198 1.148c-.019.019-.037.028-.056.028-.047.019-.06-.019-.042-.112l.154-.966c.243-1.381.42-2.417.532-3.108.01-.019.005-.042-.014-.07a.177.177 0 00-.042-.084l-.476-.462a71.4 71.4 0 01-1.4-1.386A18.59 18.59 0 01.91 5.27C.882 5.242.873 5.219.882 5.2c.01-.028.033-.047.07-.056l3.36-.49c.261-.047.457-.075.588-.084a.33.33 0 00.126-.042.289.289 0 00.084-.112c.784-1.605 1.377-2.81 1.778-3.612l.042-.07c.01-.019.023-.028.042-.028.019-.01.033-.005.042.014.019.019.028.037.028.056L8.848 4.43c.037.084.103.13.196.14l4.004.588c.037 0 .06.014.07.042.01.019 0 .047-.028.084zm14 0c-.15.159-.383.397-.7.714l-.042.042c-.83.812-1.456 1.419-1.876 1.82-.13.13-.229.233-.294.308-.037.037-.056.093-.056.168l.714 4.144v.028c-.01.01-.056-.01-.14-.056-.168-.084-.41-.21-.728-.378l-2.898-1.526c-.065-.037-.135-.033-.21.014l-1.428.756a174.3 174.3 0 01-2.198 1.148c-.019.019-.037.028-.056.028-.047.019-.06-.019-.042-.112l.154-.966c.243-1.381.42-2.417.532-3.108.01-.019.005-.042-.014-.07a.177.177 0 00-.042-.084l-.476-.462a71.485 71.485 0 01-1.4-1.386 18.59 18.59 0 01-.98-1.036c-.028-.028-.037-.051-.028-.07.01-.028.033-.047.07-.056l3.36-.49c.261-.047.457-.075.588-.084a.33.33 0 00.126-.042.289.289 0 00.084-.112c.784-1.605 1.377-2.81 1.778-3.612l.042-.07c.01-.019.023-.028.042-.028.019-.01.033-.005.042.014.019.019.028.037.028.056l1.806 3.654c.037.084.103.13.196.14l4.004.588c.037 0 .06.014.07.042.01.019 0 .047-.028.084zm14 0c-.15.159-.383.397-.7.714l-.042.042c-.83.812-1.456 1.419-1.876 1.82-.13.13-.229.233-.294.308-.037.037-.056.093-.056.168l.714 4.144v.028c-.01.01-.056-.01-.14-.056-.168-.084-.41-.21-.728-.378l-2.898-1.526c-.065-.037-.135-.033-.21.014l-1.428.756a174.3 174.3 0 01-2.198 1.148c-.019.019-.037.028-.056.028-.047.019-.06-.019-.042-.112l.154-.966c.243-1.381.42-2.417.532-3.108.01-.019.005-.042-.014-.07a.177.177 0 00-.042-.084l-.476-.462a71.485 71.485 0 01-1.4-1.386 18.59 18.59 0 01-.98-1.036c-.028-.028-.037-.051-.028-.07.01-.028.033-.047.07-.056l3.36-.49c.261-.047.457-.075.588-.084a.33.33 0 00.126-.042.289.289 0 00.084-.112c.784-1.605 1.377-2.81 1.778-3.612l.042-.07c.01-.019.023-.028.042-.028.019-.01.033-.005.042.014.019.019.028.037.028.056l1.806 3.654c.037.084.103.13.196.14l4.004.588c.037 0 .06.014.07.042.01.019 0 .047-.028.084zm14 0c-.15.159-.383.397-.7.714l-.042.042c-.83.812-1.456 1.419-1.876 1.82-.13.13-.229.233-.294.308-.037.037-.056.093-.056.168l.714 4.144v.028c-.01.01-.056-.01-.14-.056-.168-.084-.41-.21-.728-.378l-2.898-1.526c-.065-.037-.135-.033-.21.014l-1.428.756a174.3 174.3 0 01-2.198 1.148c-.019.019-.037.028-.056.028-.047.019-.06-.019-.042-.112l.154-.966c.243-1.381.42-2.417.532-3.108.01-.019.005-.042-.014-.07a.177.177 0 00-.042-.084l-.476-.462a71.485 71.485 0 01-1.4-1.386 18.59 18.59 0 01-.98-1.036c-.028-.028-.037-.051-.028-.07.01-.028.033-.047.07-.056l3.36-.49c.261-.047.457-.075.588-.084a.33.33 0 00.126-.042.289.289 0 00.084-.112c.784-1.605 1.377-2.81 1.778-3.612l.042-.07c.01-.019.023-.028.042-.028.019-.01.033-.005.042.014.019.019.028.037.028.056l1.806 3.654c.037.084.103.13.196.14l4.004.588c.037 0 .06.014.07.042.01.019 0 .047-.028.084zm14 0c-.15.159-.383.397-.7.714l-.042.042c-.83.812-1.456 1.419-1.876 1.82-.13.13-.229.233-.294.308-.037.037-.056.093-.056.168l.714 4.144v.028c-.01.01-.056-.01-.14-.056-.168-.084-.41-.21-.728-.378l-2.898-1.526c-.065-.037-.135-.033-.21.014l-1.428.756a174.3 174.3 0 01-2.198 1.148c-.019.019-.037.028-.056.028-.047.019-.06-.019-.042-.112l.154-.966c.243-1.381.42-2.417.532-3.108.01-.019.005-.042-.014-.07a.177.177 0 00-.042-.084l-.476-.462a71.485 71.485 0 01-1.4-1.386 18.59 18.59 0 01-.98-1.036c-.028-.028-.037-.051-.028-.07.01-.028.033-.047.07-.056l3.36-.49c.261-.047.457-.075.588-.084a.33.33 0 00.126-.042.289.289 0 00.084-.112c.784-1.605 1.377-2.81 1.778-3.612l.042-.07c.01-.019.023-.028.042-.028.019-.01.033-.005.042.014.019.019.028.037.028.056l1.806 3.654c.037.084.103.13.196.14l4.004.588c.037 0 .06.014.07.042.01.019 0 .047-.028.084z" fill="#FF9000"/></svg>