<svg width="26" height="22" fill="none" xmlns="http://www.w3.org/2000/svg"><path d="M13.644 15.932a1.1 1.1 0 01-.644.196.973.973 0 01-.616-.196L1.38 8.092c-.168-.112-.317-.13-.448-.056-.112.056-.168.187-.168.392v12.544c0 .224.075.41.224.56.15.15.327.224.532.224h22.96a.727.727 0 00.532-.224.718.718 0 00.252-.56V8.428c0-.205-.065-.336-.196-.392-.13-.075-.28-.056-.448.056l-10.976 7.84zM12.58 14.56c.15.093.29.14.42.14a.71.71 0 00.42-.14l9.24-6.58c.205-.168.308-.364.308-.588v-6.02a.64.64 0 00-.224-.504.64.64 0 00-.504-.224H3.76a.64.64 0 00-.504.224.682.682 0 00-.196.504v6.02c0 .261.093.457.28.588l9.24 6.58zM7.372 3.612H18.18a.72.72 0 01.56.252.76.76 0 01.224.56.727.727 0 01-.224.532.76.76 0 01-.56.224H7.372a.76.76 0 01-.56-.224.727.727 0 01-.224-.532.76.76 0 01.224-.56.718.718 0 01.56-.252zm0 2.744H18.18a.72.72 0 01.56.252c.15.15.224.327.224.532a.823.823 0 01-.224.56.76.76 0 01-.56.224H7.372a.76.76 0 01-.56-.224.727.727 0 01-.224-.532.76.76 0 01.224-.56.718.718 0 01.56-.252z" fill="#fff"/></svg>