<svg width="28" height="23" fill="none" xmlns="http://www.w3.org/2000/svg"><path d="M18.228 17.66c-.205 0-.345-.075-.42-.224a7.376 7.376 0 01-.224-.476 1.23 1.23 0 00-.252-.392c-.13-.15-.28-.215-.448-.196-.15.019-.28.112-.392.28-.075.112-.15.308-.224.588l-.084.364a2.575 2.575 0 01-.168.56l-.028.028c-.019.037-.047.056-.084.056-.037 0-.056-.037-.056-.112a6.491 6.491 0 01-.168-.868l-.084-.7c-.075-.653-.168-1.139-.28-1.456l-.028-.084a5.383 5.383 0 00-.168-.28c-.168-.205-.373-.261-.616-.168l-.028.028c-.019 0-.047.019-.084.056l-.112.112c-.075.112-.13.205-.168.28a4.89 4.89 0 00-.084.308l-.056.168c-.075.41-.15 1.017-.224 1.82l-.056.756a4.958 4.958 0 01-.168 1.092c0 .075-.019.112-.056.112-.019 0-.037-.019-.056-.056l-.028-.028-.168-.588-.112-.644a11.42 11.42 0 00-.196-.952c-.075-.28-.168-.495-.28-.644-.112-.15-.243-.224-.392-.224-.15-.019-.28.037-.392.168a1.085 1.085 0 00-.14.196l-.056.084c-.093.224-.187.579-.28 1.064l-.028.224a2.898 2.898 0 01-.168.728c0 .056-.028.084-.084.084-.019 0-.028-.01-.028-.028l-.028-.056a1.097 1.097 0 01-.112-.252l-.028-.056c-.093-.373-.205-.635-.336-.784a.814.814 0 00-.728-.392H8.764c-.075 0-.121.01-.14.028v.504c.019.019.065.028.14.028h1.008a.44.44 0 01.392.224l.224.616c.075.205.159.383.252.532.13.187.29.28.476.28.187-.019.345-.121.476-.308.093-.168.177-.43.252-.784l.084-.336c.056-.41.112-.71.168-.896l.056-.14v-.056c.019-.019.037-.019.056 0 .019 0 .037.01.056.028l.028.028c.075.243.121.448.14.616.037.15.084.383.14.7.093.43.168.747.224.952.037.15.075.261.112.336.093.28.27.457.532.532h.112c.205-.056.355-.215.448-.476.093-.261.177-.672.252-1.232l.084-.896c.037-.672.084-1.176.14-1.512.019-.168.065-.373.14-.616l.028-.028c.019-.037.047-.056.084-.056.037 0 .056.037.056.112.075.168.15.457.224.868l.084.7c.056.541.112.952.168 1.232.037.187.093.345.168.476.112.187.252.29.42.308a.669.669 0 00.448-.168c.168-.205.28-.43.336-.672l.252-.924c0-.075.028-.112.084-.112.056 0 .084.037.084.112l.112.224c.075.168.14.29.196.364.205.317.485.476.84.476a5.31 5.31 0 01.784 0h.392v-.56h-1.148zM0 19.816c.373.168.877.401 1.512.7v-4.62c-.635.299-1.139.532-1.512.7v3.22zM21.952 4.332c-2.744-2.39-6.095-3.304-10.052-2.744-1.755.261-3.37.905-4.844 1.932A11.224 11.224 0 003.64 7.3a10.606 10.606 0 00-1.4 4.956c-.037 1.325-.047 3.323-.028 5.992l.028 2.996c0 .504.159.915.476 1.232.336.317.756.485 1.26.504h2.38c.616-.019 1.083-.187 1.4-.504.336-.317.504-.784.504-1.4v-5.712c0-.635-.168-1.12-.504-1.456-.336-.336-.821-.504-1.456-.504H4.2c-.093-3.92 1.41-6.785 4.508-8.596 1.83-1.083 3.668-1.596 5.516-1.54 1.867.037 3.687.635 5.46 1.792 2.856 1.848 4.228 4.63 4.116 8.344h-.756a17.029 17.029 0 00-1.4 0c-.579 0-1.036.168-1.372.504-.336.317-.513.775-.532 1.372v5.796c.019.597.187 1.055.504 1.372.317.317.765.485 1.344.504.485.019 1.223.028 2.212.028 1.307-.019 1.96-.69 1.96-2.016v-2.8c.019-2.483.019-4.35 0-5.6-.019-3.267-1.288-6.01-3.808-8.232zM28 16.988c0-.205-.037-.336-.112-.392a18.336 18.336 0 00-1.4-.756v4.676l.392-.196a5.19 5.19 0 01.7-.364c.168-.075.28-.159.336-.252a.764.764 0 00.084-.392 20.64 20.64 0 010-1.54v-.784z" fill="#fff"/></svg>