<svg width="48" height="55" fill="none" xmlns="http://www.w3.org/2000/svg"><path d="M46.05 3.325c-.183-1.027-.66-1.778-1.43-2.255-.733-.477-1.687-.642-2.86-.495-.44.073-.733.055-.88-.055-.11-.11-.128-.367-.055-.77H6.12c.073.367.055.623-.055.77-.073.11-.33.147-.77.11-1.357-.183-2.42.037-3.19.66S.877 2.922.73 4.315c-.403 3.52.128 6.802 1.595 9.845.807 1.76 1.797 2.878 2.97 3.355 1.173.477 2.768.403 4.785-.22.477-.147.843-.165 1.1-.055.257.11.513.385.77.825 1.687 2.713 3.795 4.657 6.325 5.83.22.11.348.238.385.385.037.11 0 .275-.11.495-.513 1.1-.935 2.383-1.265 3.85-.22.953-.458 2.273-.715 3.96-.037.293-.018.495.055.605.11.073.312.11.605.11h4.015c3.63-.037 6.343-.037 8.14 0 .33 0 .532-.073.605-.22.073-.147.092-.367.055-.66v-.11c-.183-1.43-.403-2.658-.66-3.685a18.866 18.866 0 00-1.155-3.52c-.147-.33-.202-.568-.165-.715.037-.183.22-.348.55-.495 2.53-1.137 4.712-3.153 6.545-6.05.22-.367.422-.587.605-.66.22-.11.513-.092.88.055.403.147.972.293 1.705.44l.715.11c1.98.33 3.502-.33 4.565-1.98 2.457-3.703 3.263-7.865 2.42-12.485zM9.915 15.7c-.33.037-.825.128-1.485.275l-.99.22c-1.173.183-2.182-.33-3.025-1.54-.587-.843-1.063-1.815-1.43-2.915-.293-.843-.532-1.888-.715-3.135l-.22-2.09c0-1.283.147-2.292.44-3.025.147-.44.458-.788.935-1.045a3.056 3.056 0 011.595-.33c.587 0 1.045.165 1.375.495.11.11.165.312.165.605.88 4.73 2.108 8.653 3.685 11.77.073.22.092.385.055.495-.037.11-.165.183-.385.22zm7.095 1.925c-.257.22-.513.257-.77.11-.147-.073-.348-.275-.605-.605-2.237-3.337-4.015-7.517-5.335-12.54a.766.766 0 01-.055-.33c.037-.257.092-.458.165-.605.11-.147.275-.238.495-.275.513-.073.843.147.99.66a34.41 34.41 0 001.155 3.74c1.1 3.337 2.438 6.123 4.015 8.36.477.623.458 1.118-.055 1.485zM44.895 6.24c-.073 1.467-.202 2.713-.385 3.74-.293 1.357-.715 2.567-1.265 3.63-.55 1.027-1.1 1.742-1.65 2.145-.55.367-1.21.513-1.98.44-.55-.037-1.448-.22-2.695-.55-.183-.073-.293-.147-.33-.22 0-.073.037-.165.11-.275l.055-.11c1.577-3.337 2.805-7.315 3.685-11.935 0-.257.073-.44.22-.55a2.11 2.11 0 011.54-.495 2.856 2.856 0 011.595.605c.477.33.77.77.88 1.32v.11c.22.953.293 1.668.22 2.145zm-10.89 30.14c-.037-.697-.257-1.228-.66-1.595-.367-.367-.898-.568-1.595-.605h-16.5c-.77 0-1.375.183-1.815.55-.403.367-.605.898-.605 1.595-.037.807-.037 2.017 0 3.63v1.815H7.385v12.98H39.56V41.77h-5.61l.055-5.39z" fill="#fff"/></svg>